<?xml version="1.0" encoding="UTF-8"?>
<svg id="Layer_1" data-name="Layer 1" xmlns="http://www.w3.org/2000/svg" viewBox="0 0 48 48">
  <defs>
    <style>
      .cls-1 {
        fill: #fff;
      }
    </style>
  </defs>
  <path class="cls-1" d="m47.66,39.6l-2.83-7.98c-.07-.19-.16-.35-.27-.48-.1-.14-.22-.23-.35-.28s-.26-.08-.39-.08c-.14,0-.26.02-.38.06l-6.65,2.36c-.1.04-.17.09-.22.15-.05.07-.08.16-.1.27-.02.11,0,.24.02.39.03.15.08.33.16.54.13.39.28.66.44.81.16.15.32.19.51.13l4.85-1.73,2.17,6.1c-.46.52-1,.97-1.6,1.36-.61.4-1.24.71-1.89.94-1.09.38-2.15.55-3.19.51-1.05-.04-2.02-.3-2.93-.78-.91-.48-1.74-1.17-2.48-2.07-.74-.91-1.35-2.03-1.82-3.36-.43-1.2-.65-2.37-.67-3.52-.03-1.14.15-2.2.52-3.17.37-.97.94-1.83,1.71-2.58.76-.74,1.73-1.32,2.88-1.73.97-.35,1.85-.54,2.63-.59.77-.04,1.46-.03,2.06.04.59.06,1.08.15,1.45.24.38.1.63.13.76.08.07-.02.14-.07.19-.14.04-.06.07-.16.08-.27.01-.12-.01-.26-.04-.43-.03-.16-.09-.34-.16-.55-.12-.34-.24-.6-.36-.76-.12-.17-.28-.3-.47-.39-.19-.09-.51-.18-.96-.26-.45-.09-.98-.14-1.59-.13-.61,0-1.29.06-2.05.17-.75.11-1.52.3-2.32.59-1.55.55-2.88,1.31-3.97,2.29-1.09.98-1.92,2.1-2.5,3.37-.09.2-.17.4-.25.61,0,0-.01-.03-.01-.04-.43-1.19-1.02-2.23-1.77-3.11-.74-.89-1.62-1.62-2.61-2.2-1-.57-2.07-.97-3.22-1.18.91-.39,1.72-.89,2.42-1.5.71-.6,1.29-1.29,1.76-2.06.46-.77.81-1.61,1.05-2.52.24-.91.36-1.86.36-2.85,0-1.67-.27-3.17-.81-4.49s-1.35-2.43-2.42-3.34c-1.07-.91-2.41-1.6-4.01-2.08-1.61-.48-3.66-.71-6.18-.71H2.67c-.5,0-.97.16-1.42.5-.44.33-.66.92-.66,1.77v37.48c0,.85.22,1.44.66,1.77.45.34.92.5,1.42.5h10.97c1.58,0,2.99-.11,4.21-.34,1.22-.22,2.37-.57,3.44-1.02s2.04-1.02,2.89-1.69c.86-.67,1.59-1.45,2.2-2.34.54-.8.98-1.7,1.3-2.69.06.17.12.34.18.52.56,1.59,1.31,2.96,2.23,4.08.92,1.13,1.99,2.01,3.2,2.62,1.21.62,2.54.95,3.99,1,1.45.05,2.98-.21,4.6-.79.53-.18,1.05-.41,1.57-.66.52-.26,1.01-.55,1.5-.86.48-.32.94-.66,1.37-1.02.43-.36.77-.67,1.03-.94.26-.27.4-.52.42-.76.03-.24-.01-.5-.11-.78ZM6.14,7.79h5.77c1.6,0,2.88.15,3.85.46.98.3,1.76.74,2.37,1.31.6.58,1.05,1.27,1.33,2.1.28.82.42,1.74.42,2.76,0,.91-.13,1.79-.4,2.65-.27.85-.7,1.6-1.29,2.24-.58.64-1.31,1.14-2.2,1.52-.88.38-2.05.57-3.5.57h-6.35V7.79Zm15.66,28.84c-.41.89-.98,1.63-1.7,2.23-.73.6-1.57,1.04-2.52,1.35-.95.3-2.06.45-3.34.45H6.14v-14.81h6.68c1.75,0,3.2.17,4.36.5,1.15.34,2.12.83,2.88,1.48.77.65,1.35,1.45,1.75,2.41.4.95.6,2.05.6,3.31,0,1.17-.2,2.2-.61,3.08Z"/>
</svg>